<?xml version="1.0" encoding="UTF-8"?>
<!DOCTYPE svg PUBLIC "-//W3C//DTD SVG 1.1//EN" "http://www.w3.org/Graphics/SVG/1.1/DTD/svg11.dtd">
<!-- Creator: CorelDRAW -->
<svg xmlns="http://www.w3.org/2000/svg" xml:space="preserve" width="270.226mm" height="28.0699mm" version="1.1" style="shape-rendering:geometricPrecision; text-rendering:geometricPrecision; image-rendering:optimizeQuality; fill-rule:evenodd; clip-rule:evenodd"
viewBox="0 0 9219.61 957.69"
 xmlns:xlink="http://www.w3.org/1999/xlink"
 xmlns:xodm="http://www.corel.com/coreldraw/odm/2003">
 <defs>
  <style type="text/css">
   <![CDATA[
    .fil1 {fill:#3C83B7;fill-rule:nonzero}
    .fil0 {fill:#BB7730;fill-rule:nonzero}
   ]]>
  </style>
 </defs>
 <g id="圖層_x0020_1">
  <metadata id="CorelCorpID_0Corel-Layer"/>
  <g id="_2290887242592">
   <path class="fil0" d="M375.47 489.08c-31.94,180.91 -121.41,328.49 -375.47,451.34l8.12 15.23c338.85,-107.73 453.88,-261.74 494.44,-466.58l-127.09 0zm135.95 0c35.55,165.48 121.46,354.98 343.69,466.58 9.14,-67.03 44.68,-99.53 104.6,-110.7l1.02 -12.19c-248.79,-79.61 -373.46,-207.57 -425.01,-343.69l-24.31 0zm666.85 0l0 197.45c-50.78,16.25 -93.43,29.45 -120.85,36.56l58.9 135.07c12.19,-5.08 21.32,-17.26 24.37,-30.47 130,-89.37 221.4,-165.54 282.33,-218.35l-4.06 -10.15c-42.65,17.26 -86.33,33.51 -128.98,48.75l0 -158.86 -111.71 0zm669.12 0c-3.8,44.71 -9.27,67.25 -17.12,75.58 -6.09,6.09 -12.19,8.12 -25.39,8.12 -13.2,0 -37.57,-1.01 -52.81,-2.03l0 -81.67 -109.68 0 0 259.4 20.31 0c41.64,0 89.37,-22.34 89.37,-33.51l0 -128.98c22.34,7.11 34.53,16.25 42.65,30.47 10.15,15.23 11.17,41.64 11.17,76.17 43.67,0 79.22,-10.16 105.62,-34.53 28.36,-24.31 41.9,-65.24 48.69,-169.01l-112.82 0zm127.09 160.89l-11.17 0c-21.33,70.08 -40.62,120.85 -53.82,140.15 -9.14,10.15 -20.31,14.22 -37.58,15.23 -21.33,2.03 -62.96,3.05 -113.74,3.05l-137.1 0c-52.81,0 -68.05,-9.14 -68.05,-39.61l0 -279.71 -113.74 0 0 310.18c0,99.53 44.68,120.85 168.58,120.85l140.15 0c226.47,0 280.3,-20.31 280.3,-77.19 0,-21.33 -12.19,-35.54 -49.76,-48.75l-4.06 -144.21zm266.24 -160.89l59.97 133.47c9.14,-4.06 17.26,-12.19 24.37,-23.36 105.62,-22.34 200.07,-44.68 279.28,-65 -108.67,103.59 -234.6,202.1 -329.05,248.82 -18.28,9.14 -52.81,14.22 -52.81,14.22l65 143.2c8.12,-3.05 16.25,-9.14 23.36,-18.28 239.68,-45.7 436.7,-87.34 576.85,-121.87 20.31,43.67 35.54,86.33 43.67,128.98 137.1,106.64 237.64,-191.95 -166.55,-333.11l-10.16 6.09c42.65,47.73 84.29,105.62 116.79,167.57 -205.15,14.22 -400.14,24.37 -526.07,29.45 167.01,-81.78 363.92,-206.62 485,-310.18l-463.92 0c-9.85,0.17 -19.27,0.31 -28.19,0.43l0.93 -0.43 -98.48 0zm962 468.61c147.26,-18.28 300.61,-62.97 394.04,-109.68 32.5,8.12 51.79,4.06 60.93,-6.09l-131.01 -92.42c-66.01,63.98 -204.13,148.27 -328.03,194.99l4.06 13.2zm530.13 -169.6c129.99,40.62 213.27,98.51 258.97,145.23 103.59,84.29 298.58,-136.09 -254.91,-158.43l-4.06 13.2zm166.55 -299l0 48.16 -165.54 0 0 -48.16 -117.81 0 0 48.16 -153.35 0 0 -48.16 -119.84 0 0 294.94 17.26 0c49.76,0 102.57,-25.39 102.57,-37.58l0 -24.37 436.7 0 0 41.64 19.3 0c40.62,0 100.54,-20.31 101.56,-27.42l0 -247.21 -120.85 0zm-165.54 203.54l0 -126.95 165.54 0 0 126.95 -165.54 0zm-271.16 -126.95l153.35 0 0 126.95 -153.35 0 0 -126.95zm1147.6 11.17c46.71,0 83.28,-38.59 83.28,-82.26 0,-1.85 -0.06,-3.68 -0.18,-5.5l-167.21 0c-0.11,1.82 -0.18,3.65 -0.18,5.5 0,43.67 36.56,82.26 84.29,82.26zm737.31 242.72l0 -330.49 -125.93 0 0 460.48 21.33 0c54.84,0 104.61,-30.47 104.61,-46.71l0 -53.83 401.15 0 0 92.42 20.31 0c46.71,0 107.65,-30.47 108.67,-39.61l0 -412.75 -128.98 0 0 330.49 -401.15 0zm1104.13 -266.08c2.74,-21.5 4.46,-43 5.51,-64.41l-120.71 0c-7.13,172.5 -44.36,331.04 -190.49,459.47l9.14 8.12c199.06,-93.43 269.13,-231.55 292.49,-374.75l338.19 0 0 214.29c0,15.23 -5.08,23.36 -24.37,23.36 -25.39,0 -152.34,-8.12 -152.34,-8.12l0 13.2c58.9,11.17 85.31,24.37 104.61,43.67 18.28,18.28 24.37,47.73 28.44,88.36 147.26,-14.22 167.57,-61.95 167.57,-146.24l0 -321.35 -123.9 0 0 64.41 -334.13 0zm1003.59 -4.06l0 -60.34 -117.81 0 0 152.76 17.26 0c48.75,0 100.54,-26.41 100.54,-37.58l0 -26.4 155.38 0c-8.12,53.82 -22.34,101.56 -47.73,144.21 -44.69,-26.4 -81.25,-59.92 -109.68,-99.53l-11.17 10.16c24.37,50.78 55.85,93.43 91.4,129.99 -59.92,72.11 -160.46,129.99 -324.98,182.8l5.08 12.19c186.86,-30.47 307.72,-78.2 385.92,-140.15 116.79,82.26 273.19,118.82 459.04,138.12 9.14,-57.89 37.58,-96.48 87.34,-112.73l0 -13.2c-180.77,1.01 -356.47,-14.22 -491.54,-65 44.68,-54.84 66.01,-117.81 76.17,-186.86l173.66 0 0 57.89 20.31 0c38.59,0 98.51,-21.33 99.53,-29.45l0 -117.22 -119.84 0 0 60.34 -170.62 0c1.49,-19.29 2.43,-39.67 2.82,-60.34l-119.79 0c-0.37,21.01 -1.33,40.97 -2.88,60.34l-158.43 0zm1112.26 304.67l0 -131.01 353.42 0 0 131.01 -353.42 0zm353.42 -284.36l0 124.92 -353.42 0 0 -124.92 353.42 0zm-10.16 -29.45l-336.16 0 -124.92 -49.76 0 463.1 18.28 0c48.75,0 99.53,-26.4 99.53,-38.59l0 -32.5 353.42 0 0 65 20.31 0c38.59,0 98.51,-22.34 99.53,-29.45l0 -329.05c20.31,-4.06 34.53,-13.2 40.62,-21.33l-104.22 -78.63 -19.53 0 -46.86 51.2zm-571.68 -51.2c-21.14,20.04 -46,39.12 -75.24,57.3l11.17 14.22c57.05,-21.3 102.81,-45.14 139.55,-71.52l-75.48 0zm306.07 0c4.85,0.56 9.53,0.55 13.97,0l-13.97 0zm71.18 0c-12.11,7.79 -25.13,15.38 -39.15,22.77l10.16 14.22c37.55,-11.27 70.33,-23.59 99,-36.99l-70 0zm352.94 0c20.67,19.92 43.96,37.8 70,54.25 4.78,-21.12 11.91,-39.26 21.25,-54.25l-91.25 0z"/>
   <path class="fil1" d="M920.11 438.73c15.23,0 26.41,-5.08 29.45,-16.25 -47.73,-42.65 -127.96,-102.57 -127.96,-102.57l-71.09 89.37 -234.6 0c8.12,-81.25 10.15,-169.6 12.19,-266.08l331.08 0c14.22,0 26.4,-5.08 29.45,-16.25 -48.75,-41.64 -127.96,-101.56 -127.96,-101.56l-70.08 88.36 -604.27 0 8.13 29.45 298.58 0c0,96.48 0,183.82 -7.11,266.08l-358.5 0 8.12 29.45 347.33 0c-2.04,17.07 -4.49,33.85 -7.4,50.35l127.09 0c1.5,-7.57 2.91,-15.21 4.21,-22.93 1.44,7.58 3,15.23 4.65,22.93l24.31 0c-6.32,-16.68 -11.54,-33.49 -15.76,-50.35l400.14 0zm369.87 -91.4l119.84 0c12.19,0 22.34,-5.08 25.39,-16.25 -28.43,-38.59 -87.34,-98.51 -87.34,-98.51l-50.78 86.32 -7.11 0 0 -250.85c28.44,-4.06 35.55,-14.22 37.58,-28.44l-149.29 -14.22 0 293.5 -106.64 0 8.13 28.44 98.51 0 0 141.75 111.71 0 0 -141.75zm564.66 -88.36c-1.05,108.76 -3.19,182.18 -7.26,230.11l112.82 0c3.43,-52.32 5.13,-120.6 6.15,-210.81 20.31,-3.05 32.5,-10.16 39.61,-18.28l-103.59 -85.31 -58.9 56.87 2.03 0 -10.16 3.05 -83.28 30.47 0 -216.32c27.42,-4.06 34.53,-14.22 36.56,-28.43l-146.24 -15.23 0 299.59 -89.37 32.5 0 -204.13c25.39,-4.06 34.53,-15.23 36.56,-28.44l-150.3 -16.25 0 290.45 -118.82 43.67 19.3 24.37 99.53 -36.56 0 78.79 113.74 0 0 -120.43 89.37 -32.5 0 152.92 109.68 0 0 -192.53 102.57 -37.58zm1031.01 -74.14l-256.94 0c69.06,-20.31 85.31,-152.33 -134.05,-184.83l-7.11 6.09c32.5,40.62 66.01,104.61 72.11,161.48 11.17,9.14 22.34,14.22 33.51,17.26l-458.03 0 8.13 29.45 374.75 0c-42.65,81.25 -159.44,215.3 -242.72,256.94 -12.19,7.11 -37.58,11.17 -37.58,11.17l3 6.68 98.48 0c107.43,-48.79 229.8,-129.74 297.65,-190.5 21.33,4.06 34.53,-3.05 39.61,-13.2l-136.09 -71.09 518.96 0c15.23,0 26.41,-5.08 28.44,-16.25 -48.75,-43.67 -129.99,-104.6 -129.99,-104.6l-72.11 91.4zm-55.29 304.25c21.75,-18.61 41.08,-36.54 57.32,-53.4 25.39,6.09 41.64,-1.02 47.73,-11.17l-148.27 -100.54c-28.43,44.68 -74.14,100.54 -129.99,157.41 -110.67,3.6 -214.16,6.4 -290.7,7.7l463.92 0zm763.35 -333.7l162.49 0 0 120.85 -162.49 0 0 -120.85zm305.69 267.1l0 66.6 120.85 0 0 -47.3c21.33,-4.06 34.53,-12.19 40.62,-20.31l-116.79 -90.39 -54.84 61.95 -155.38 0 0 -88.36 395.06 0c15.23,0 26.41,-5.08 29.45,-16.25 -47.73,-40.62 -124.92,-97.5 -124.92,-97.5l-68.05 85.31 -90.39 0 0 -120.85 206.16 0c14.22,0 25.39,-5.08 28.44,-16.25 -44.68,-38.59 -117.81,-93.44 -117.81,-93.44l-66.02 81.25 -50.78 0 0 -83.28c27.42,-4.4 34.53,-14.73 36.56,-28.94l-155.38 -13.2 0 125.42 -162.49 0 0 -83.28c27.42,-4.4 35.54,-14.73 37.58,-28.94l-154.37 -13.2 0 125.42 -207.18 0 8.12 28.43 199.05 0 0 120.85 -270.14 0 8.12 28.44 401.15 0 0 88.36 -146.24 0 -126.95 -49.76 0 145.82 119.84 0 0 -66.6 153.35 0 0 66.6 117.81 0 0 -66.6 165.54 0zm794 66.6c-2.74,-44.2 -38.23,-79.81 -83.1,-79.81 -45.84,0 -81.38,35.61 -84.11,79.81l167.21 0zm654.21 0l0 -1.6 401.15 0 0 1.6 128.98 0 0 -328.62c20.31,-5.08 33.51,-13.2 40.62,-21.32l-118.82 -95.47 -60.93 67.03 -382.87 0 -134.06 -54.84 0 433.22 125.93 0zm401.15 -348.93l0 318.89 -401.15 0 0 -318.89 401.15 0zm708.5 348.93c1.29,-26.12 1.6,-52.1 1.6,-77.77l0 -62.96 327.02 0 0 140.74 123.9 0 0 -346.9c20.31,-4.06 34.53,-13.2 40.62,-21.33l-118.82 -92.42 -55.85 65 -297.56 0 -140.15 -48.75 0 367.64c0,25.85 -0.4,51.45 -1.45,76.76l120.71 0zm328.61 -366.2l0 197.02 -327.02 0 0 -197.02 327.02 0zm669.47 366.2l0 -68.63 161.48 0 0 48.75c0,6.74 -0.06,13.36 -0.17,19.88l119.79 0c0.15,-7.62 0.22,-15.27 0.22,-22.93l0 -45.7 167.57 0 0 68.63 119.84 0 0 -202.69c21.33,-4.06 33.51,-13.2 39.61,-21.33l-114.76 -87.34 -54.84 59.92 -157.41 0 0 -113.74 366.62 0c14.22,0 25.39,-5.08 28.44,-16.25 -48.75,-40.62 -127.96,-99.53 -127.96,-99.53l-71.09 86.32 -708.87 0 8.12 29.45 384.9 0 0 113.74 -154.37 0 -124.92 -48.75 0 300.18 117.81 0zm161.48 -221.99l0 123.9 -161.48 0 0 -123.9 161.48 0zm287.41 0l0 123.9 -167.57 0 0 -123.9 167.57 0zm1073.03 221.99l-11.55 -8.71 -7.98 8.71 19.53 0zm213.9 -197.61c13.2,0 24.37,-5.08 26.41,-16.25 -38.59,-35.55 -103.59,-86.33 -103.59,-86.33l-56.87 74.14 -83.28 0c7.11,-30.47 10.16,-62.97 13.2,-97.5l184.83 0c14.22,0 24.37,-5.08 27.42,-16.25 -38.59,-35.54 -100.54,-85.31 -100.54,-85.31l-56.87 73.12 -53.83 0c1.02,-29.45 2.03,-60.93 3.05,-94.45 21.33,-3.05 31.48,-13.37 33.51,-26.74l-150.3 -13.37c0,48.24 0,92.92 0,134.56l-132.03 0 8.13 28.44 122.88 0c-1.01,34.53 -4.06,67.03 -9.14,97.5l-127.96 0 2.03 7.11c-38.59,-34.53 -95.47,-78.2 -95.47,-78.2l-53.82 71.09 -35.54 0c6.09,-30.47 9.14,-62.97 12.19,-97.5l143.2 0c14.22,0 25.39,-5.08 28.43,-16.25 -37.57,-33.51 -97.5,-81.25 -97.5,-81.25l-52.81 69.06 -20.31 0c2.03,-30.47 3.05,-61.95 4.06,-94.45 21.33,-3.05 30.47,-13.37 32.5,-27.76l-144.21 -12.35c0,48.24 0,92.92 -1.02,134.56l-171.63 0 8.12 28.44 162.49 0c-1.02,34.53 -3.05,67.03 -8.13,97.5l-171.63 0 8.12 28.43 158.43 0c-14.29,75.21 -44.19,140.39 -104.51,197.61l75.48 0c56.13,-40.3 91.22,-86.54 113.32,-138.71 37.58,34.53 75.15,83.28 88.36,128.98 10.08,5.61 19.81,8.69 28.91,9.73l13.97 0c68.69,-8.59 83.24,-142.21 -123.12,-161.05 4.06,-12.19 8.12,-24.37 11.17,-36.56l168.58 0c12.19,0 21.33,-3.05 25.39,-10.15l3.05 10.15 113.74 0c-17.76,79.04 -57.27,143.33 -141.62,197.61l70 0c103.13,-48.21 152.82,-110.37 178.25,-187.46 20.77,80.23 55.2,139.74 104.68,187.46l91.25 0c14.48,-23.23 34.29,-38.88 58.98,-46.29l0 -10.15c-94.45,-22.34 -187.88,-63.98 -236.63,-141.17l208.19 0z"/>
  </g>
 </g>
</svg>
